<svg width="24" height="24" viewBox="0 0 24 24" fill="none" xmlns="http://www.w3.org/2000/svg">
<path d="M5.07215 19.6604C3.91032 18.6855 3.25244 17.4536 3.09851 15.9646C2.94458 14.4757 3.35507 13.1503 4.32996 11.9884L11.2399 3.75347C11.9256 2.93636 12.7999 2.48426 13.8629 2.39717C14.9259 2.31008 15.866 2.60936 16.6831 3.295C17.513 3.99135 17.9741 4.86784 18.0666 5.92447C18.159 6.98109 17.8571 7.92434 17.1607 8.75423L10.8292 16.2998C10.4221 16.7849 9.91067 17.0574 9.29482 17.1172C8.67897 17.177 8.12846 17.0033 7.6433 16.5962C7.15814 16.1891 6.90225 15.6644 6.87562 15.022C6.84899 14.3796 7.04458 13.8094 7.46239 13.3115L13.7617 5.80423L14.5278 6.44702L8.18023 14.0117C7.94454 14.2926 7.83623 14.6096 7.85531 14.9629C7.87438 15.3161 8.01798 15.6052 8.28609 15.8302C8.55421 16.0552 8.86118 16.1496 9.207 16.1134C9.55282 16.0772 9.83822 15.9251 10.0632 15.657L16.4107 8.09229C16.925 7.47945 17.145 6.78293 17.0708 6.00271C16.9966 5.2225 16.6531 4.57528 16.0403 4.06105C15.4275 3.54682 14.7304 3.32092 13.9492 3.38335C13.1679 3.44579 12.5202 3.78342 12.006 4.39626L5.06387 12.6695C4.28181 13.6016 3.95861 14.6738 4.09427 15.8864C4.22993 17.0989 4.77015 18.1016 5.71494 18.8944C6.6725 19.6979 7.7596 20.0553 8.97626 19.9666C10.1929 19.8779 11.1976 19.3611 11.9904 18.4163L18.9325 10.143L19.6986 10.7858L12.7725 19.04C11.7976 20.2018 10.561 20.8394 9.06254 20.9527C7.56412 21.0661 6.23399 20.6353 5.07215 19.6604Z" fill="#3C6E71"/>
</svg>
